<?xml version="1.0" standalone="no"?>
<!DOCTYPE svg PUBLIC "-//W3C//DTD SVG 20010904//EN"
 "http://www.w3.org/TR/2001/REC-SVG-20010904/DTD/svg10.dtd">
<svg version="1.0" xmlns="http://www.w3.org/2000/svg"
 width="500.000000pt" height="500.000000pt" viewBox="0 0 500.000000 500.000000"
 preserveAspectRatio="xMidYMid meet">

<g transform="translate(0.000000,500.000000) scale(0.100000,-0.100000)"
fill="#000000" stroke="none">
<path d="M1478 4583 c6 -2 18 -2 25 0 6 3 1 5 -13 5 -14 0 -19 -2 -12 -5z"/>
<path d="M1718 4583 c7 -3 16 -2 19 1 4 3 -2 6 -13 5 -11 0 -14 -3 -6 -6z"/>
<path d="M3548 4573 c7 -3 16 -2 19 1 4 3 -2 6 -13 5 -11 0 -14 -3 -6 -6z"/>
<path d="M2210 4386 c0 -2 7 -7 16 -10 8 -3 12 -2 9 4 -6 10 -25 14 -25 6z"/>
<path d="M3118 4353 c7 -3 16 -2 19 1 4 3 -2 6 -13 5 -11 0 -14 -3 -6 -6z"/>
<path d="M3046 4331 c-4 -5 3 -7 14 -4 23 6 26 13 6 13 -8 0 -17 -4 -20 -9z"/>
<path d="M876 4322 c-3 -5 1 -9 9 -9 8 0 12 4 9 9 -3 4 -7 8 -9 8 -2 0 -6 -4
-9 -8z"/>
<path d="M3165 4181 c-80 -17 -153 -42 -210 -71 -149 -76 -304 -233 -378 -381
-14 -29 -25 -38 -54 -42 -30 -5 -42 -1 -76 26 -145 114 -385 161 -585 114
-307 -73 -544 -312 -627 -634 -36 -136 -36 -330 0 -464 28 -107 54 -179 86
-235 116 -207 290 -368 568 -525 25 -14 62 -36 81 -47 19 -12 49 -29 65 -38
45 -25 281 -173 354 -221 35 -24 70 -43 78 -43 8 0 82 43 164 95 82 52 151 95
154 95 3 0 38 20 78 44 39 23 103 61 140 82 38 21 76 44 85 49 84 51 208 144
280 210 69 64 172 186 172 204 0 6 4 11 8 11 10 0 71 120 101 198 62 158 79
390 41 548 -38 162 -109 286 -225 396 l-54 51 47 23 c90 45 241 188 295 280
39 67 67 125 67 139 0 18 -107 73 -200 103 -162 52 -315 63 -455 33z m290
-116 c50 -7 106 -19 125 -26 94 -32 90 -30 77 -49 -6 -10 -15 -17 -19 -14 -4
3 -5 -2 -2 -10 3 -9 -3 -20 -15 -28 -12 -7 -21 -17 -21 -23 0 -18 -51 -66 -62
-59 -7 4 -8 2 -4 -5 13 -20 -126 -136 -151 -127 -8 3 -12 2 -8 -3 16 -27 -222
-101 -328 -101 -86 0 -247 22 -240 32 14 24 168 128 180 124 8 -3 12 -2 9 3
-9 14 118 76 256 126 26 10 45 22 42 27 -11 17 -138 -1 -224 -33 -47 -17 -94
-33 -105 -36 -11 -3 -32 -14 -47 -25 -14 -10 -29 -18 -33 -18 -3 0 -30 -16
-60 -34 -36 -23 -55 -31 -59 -23 -2 7 -5 3 -6 -8 0 -11 -16 -30 -35 -42 l-35
-22 15 29 c8 16 22 33 31 38 9 5 17 13 17 18 1 5 6 8 10 6 5 -1 5 3 2 9 -9 14
74 100 88 92 6 -3 7 -1 4 4 -11 17 174 143 210 143 8 0 24 5 35 11 28 15 151
37 213 38 28 0 91 -6 140 -14z m-1225 -374 c31 -11 75 -31 99 -44 l43 -25 -33
-7 c-109 -22 -272 -141 -345 -252 -176 -266 -207 -559 -91 -863 30 -81 118
-213 131 -199 2 2 -5 31 -16 64 -51 159 -70 267 -70 409 1 423 229 724 590
777 88 13 161 7 322 -29 101 -22 276 -21 353 1 72 22 81 18 192 -89 187 -180
237 -510 120 -798 -40 -99 -58 -129 -70 -118 -5 4 -5 2 -1 -5 8 -14 -77 -137
-137 -196 -76 -76 -325 -257 -353 -257 -4 0 -15 -6 -23 -14 -9 -7 -47 -30 -86
-51 -38 -20 -77 -43 -85 -49 -8 -7 -49 -32 -90 -56 -41 -24 -103 -63 -137 -87
-34 -24 -64 -43 -67 -43 -2 0 -61 36 -130 80 -70 44 -129 80 -132 80 -3 0 -18
8 -32 19 -15 10 -94 58 -177 106 -163 95 -314 200 -385 266 -97 91 -188 226
-232 342 -27 70 -58 235 -58 306 0 68 24 203 49 277 42 127 145 270 253 354
62 48 203 106 293 121 81 13 243 2 305 -20z"/>
<path d="M3566 3903 c-6 -14 -5 -15 5 -6 7 7 10 15 7 18 -3 3 -9 -2 -12 -12z"/>
<path d="M4301 3694 c0 -11 3 -14 6 -6 3 7 2 16 -1 19 -3 4 -6 -2 -5 -13z"/>
<path d="M4522 3525 c0 -16 2 -22 5 -12 2 9 2 23 0 30 -3 6 -5 -1 -5 -18z"/>
<path d="M4332 3440 c0 -19 2 -27 5 -17 2 9 2 25 0 35 -3 9 -5 1 -5 -18z"/>
<path d="M671 3434 c0 -11 3 -14 6 -6 3 7 2 16 -1 19 -3 4 -6 -2 -5 -13z"/>
<path d="M4522 3400 c0 -19 2 -27 5 -17 2 9 2 25 0 35 -3 9 -5 1 -5 -18z"/>
<path d="M4471 3064 c0 -11 3 -14 6 -6 3 7 2 16 -1 19 -3 4 -6 -2 -5 -13z"/>
<path d="M4266 2658 c3 -4 9 -8 15 -8 5 0 9 4 9 8 0 5 -7 9 -15 9 -8 0 -12 -4
-9 -9z"/>
<path d="M770 2601 c0 -6 4 -13 10 -16 6 -3 7 1 4 9 -7 18 -14 21 -14 7z"/>
<path d="M4129 2453 l-24 -28 28 24 c15 14 27 26 27 28 0 8 -8 1 -31 -24z"/>
<path d="M4007 2337 c-3 -8 1 -14 8 -14 7 0 11 6 8 14 -3 7 -6 13 -8 13 -2 0
-5 -6 -8 -13z"/>
<path d="M1276 2292 c-3 -5 1 -9 9 -9 8 0 12 4 9 9 -3 4 -7 8 -9 8 -2 0 -6 -4
-9 -8z"/>
<path d="M3298 1713 c6 -2 9 -10 6 -15 -4 -7 -2 -8 5 -4 13 9 5 26 -12 25 -9
0 -8 -2 1 -6z"/>
<path d="M1444 1505 c-9 -14 -14 -31 -11 -38 3 -8 40 -28 83 -45 72 -30 79
-31 96 -15 29 26 21 46 -36 86 -66 45 -108 49 -132 12z"/>
<path d="M3458 1482 c-79 -66 -87 -92 -25 -92 21 0 41 10 64 32 l33 32 39 -32
c26 -21 51 -32 71 -32 49 0 49 26 -1 68 -24 20 -52 45 -61 55 -29 28 -59 20
-120 -31z"/>
<path d="M681 1298 c1 -120 1 -123 -22 -128 -18 -4 -23 -13 -24 -40 -3 -46 3
-60 26 -60 17 0 19 -11 21 -117 l3 -118 170 -3 c198 -3 253 9 315 67 60 56 83
119 83 226 0 77 -3 97 -26 140 -34 68 -78 109 -144 134 -48 18 -76 21 -229 21
l-175 0 2 -122z m321 -10 c25 -7 50 -26 71 -52 27 -34 32 -50 35 -105 3 -56 0
-71 -20 -100 -42 -62 -68 -74 -168 -79 l-90 -4 0 60 0 61 62 3 c58 3 63 5 72
30 7 18 6 35 -2 53 -11 23 -17 25 -72 25 l-60 0 0 60 0 60 66 0 c37 0 84 -5
106 -12z"/>
<path d="M2574 1406 c-3 -7 -4 -35 -2 -62 l3 -49 83 -3 82 -3 0 -230 0 -230
68 3 67 3 3 227 2 227 83 3 82 3 0 60 0 60 -233 3 c-191 2 -233 0 -238 -12z"/>
<path d="M3125 1407 c-3 -7 -4 -138 -3 -292 l3 -280 68 -3 67 -3 0 296 0 295
-65 0 c-44 0 -67 -4 -70 -13z"/>
<path d="M1472 1338 c-7 -7 -12 -18 -12 -25 0 -7 -4 -21 -9 -31 -6 -9 -21 -44
-34 -77 -32 -77 -93 -224 -123 -296 -13 -31 -24 -62 -24 -68 0 -7 23 -11 65
-11 60 0 65 2 78 28 8 15 17 39 21 55 l6 27 104 0 105 0 19 -52 20 -53 66 -3
c73 -3 74 -2 52 58 -16 43 -103 258 -116 285 -5 11 -19 45 -30 75 -12 30 -26
65 -31 78 -8 20 -15 22 -77 22 -40 0 -73 -5 -80 -12z m111 -198 c15 -41 27
-81 27 -87 0 -9 -20 -13 -65 -13 l-64 0 14 43 c8 23 22 66 32 94 9 29 20 50
23 45 4 -4 19 -41 33 -82z"/>
<path d="M2021 1335 c-119 -33 -191 -127 -191 -249 0 -73 17 -125 56 -172 43
-53 97 -81 171 -89 180 -21 313 89 313 258 0 180 -169 302 -349 252z m120
-115 c57 -16 92 -60 97 -123 5 -64 -13 -105 -60 -138 -39 -28 -112 -30 -156
-4 -79 47 -83 188 -7 245 38 29 73 35 126 20z"/>
<path d="M3367 1344 c-4 -4 -7 -121 -7 -261 l0 -253 188 2 187 3 3 44 c2 28
-1 47 -10 52 -7 5 -64 9 -125 9 l-113 0 0 50 0 50 106 0 105 0 -3 48 -3 47
-102 3 -103 3 0 44 0 44 113 3 112 3 0 55 0 55 -171 3 c-93 1 -173 -1 -177 -4z"/>
<path d="M3804 1327 c-2 -7 -3 -120 -2 -252 l3 -240 62 -3 62 -3 3 155 3 154
110 -154 110 -154 63 0 62 0 0 255 0 255 -65 0 -64 0 -3 -149 -3 -150 -105
149 -105 149 -63 1 c-42 0 -64 -4 -68 -13z"/>
<path d="M1637 634 c-4 -4 -7 -70 -7 -146 l0 -138 35 0 35 0 0 60 0 60 55 0
54 0 3 -57 c3 -57 3 -58 36 -61 l32 -3 0 146 0 146 -32 -3 c-33 -3 -33 -4 -36
-60 l-3 -58 -54 0 -54 0 -3 58 c-3 53 -5 57 -28 60 -14 2 -29 0 -33 -4z"/>
<path d="M2105 624 c-77 -40 -104 -111 -71 -187 17 -41 52 -72 98 -86 112 -36
224 75 188 186 -16 49 -26 60 -71 84 -46 23 -103 24 -144 3z m118 -64 c33 -26
43 -70 23 -108 -26 -50 -86 -58 -130 -17 -36 33 -35 78 3 116 35 34 68 37 104
9z"/>
<path d="M2440 610 c0 -28 2 -30 40 -30 l39 0 3 -112 3 -113 32 -3 32 -3 3
113 c3 109 4 113 26 114 12 1 31 2 43 3 16 1 20 7 17 29 l-3 27 -117 3 -118 3
0 -31z"/>
<path d="M2814 627 c-2 -7 -3 -71 -2 -143 l3 -129 103 -3 102 -3 0 31 0 30
-70 0 -70 0 0 30 0 30 60 0 60 0 0 30 0 30 -60 0 c-57 0 -60 1 -60 25 0 24 2
25 65 25 l65 0 0 30 0 30 -95 0 c-69 0 -97 -4 -101 -13z"/>
<path d="M3177 634 c-4 -4 -7 -70 -7 -146 l0 -138 100 0 100 0 0 30 0 30 -65
0 -64 0 -3 113 c-3 112 -3 112 -28 115 -14 2 -29 0 -33 -4z"/>
</g>
</svg>
